<svg width="1200" height="600" xmlns="http://www.w3.org/2000/svg">
  <!-- Simplified world map continents outline - very subtle -->
  <g fill="none" stroke="rgba(255,22,84,0.03)" stroke-width="1.5">
    <!-- North America -->
    <path d="M150,80 Q180,60 220,70 L250,90 Q270,110 260,140 L240,180 Q220,200 200,220 L180,240 Q160,250 140,240 L120,220 Q100,200 110,180 L130,140 Q140,110 150,80Z"/>
    
    <!-- South America -->
    <path d="M200,260 Q220,250 240,270 L250,300 Q260,340 250,380 L240,420 Q230,450 210,460 L190,450 Q170,440 180,410 L190,370 Q200,330 200,290 Z"/>
    
    <!-- Europe -->
    <path d="M500,100 Q520,90 540,100 L560,120 Q570,140 560,160 L540,180 Q520,190 500,180 L480,160 Q470,140 480,120 Z"/>
    
    <!-- Africa -->
    <path d="M520,200 Q540,190 560,200 L580,230 Q590,270 580,310 L570,360 Q560,400 540,420 L520,430 Q500,420 490,390 L480,350 Q470,310 480,270 L500,230 Z"/>
    
    <!-- Asia -->
    <path d="M600,80 Q650,70 700,80 L750,100 Q800,120 820,150 L840,180 Q850,210 840,240 L820,270 Q800,290 770,300 L740,310 Q710,320 680,310 L650,290 Q620,270 610,240 L600,210 Q590,180 600,150 Z"/>
    
    <!-- Australia -->
    <path d="M850,350 Q870,340 890,350 L910,370 Q920,390 910,410 L890,430 Q870,440 850,430 L830,410 Q820,390 830,370 Z"/>
  </g>
  
  <!-- Add subtle dots for cities/locations -->
  <g fill="rgba(255,22,84,0.04)">
    <circle cx="200" cy="150" r="2"/>
    <circle cx="520" cy="140" r="2"/>
    <circle cx="550" cy="300" r="2"/>
    <circle cx="720" cy="180" r="2"/>
    <circle cx="880" cy="390" r="2"/>
    <circle cx="220" cy="340" r="2"/>
  </g>
</svg>
